<?xml version="1.0" encoding="UTF-8" standalone="no"?>
<!-- Created with Inkscape (http://www.inkscape.org/) -->

<svg
   xmlns:dc="http://purl.org/dc/elements/1.1/"
   xmlns:cc="http://creativecommons.org/ns#"
   xmlns:rdf="http://www.w3.org/1999/02/22-rdf-syntax-ns#"
   xmlns:svg="http://www.w3.org/2000/svg"
   xmlns="http://www.w3.org/2000/svg"
   xmlns:sodipodi="http://sodipodi.sourceforge.net/DTD/sodipodi-0.dtd"
   xmlns:inkscape="http://www.inkscape.org/namespaces/inkscape"
   version="1.1"
   id="svg4849"
   xml:space="preserve"
   width="1066.6667"
   height="1066.6667"
   viewBox="0 0 1066.6667 1066.6667"
   sodipodi:docname="eagle-wings--publicdomainvectors.org.svg"
   inkscape:version="0.92.4 (5da689c313, 2019-01-14)"><metadata
     id="metadata4855"><rdf:RDF><cc:Work
         rdf:about=""><dc:format>image/svg+xml</dc:format><dc:type
           rdf:resource="http://purl.org/dc/dcmitype/StillImage" /><dc:title></dc:title></cc:Work></rdf:RDF></metadata><defs
     id="defs4853"><clipPath
       clipPathUnits="userSpaceOnUse"
       id="clipPath4865"><path
         d="M 0,800 H 800 V 0 H 0 Z"
         id="path4863"
         inkscape:connector-curvature="0" /></clipPath></defs><sodipodi:namedview
     pagecolor="#ffffff"
     bordercolor="#666666"
     borderopacity="1"
     objecttolerance="10"
     gridtolerance="10"
     guidetolerance="10"
     inkscape:pageopacity="0"
     inkscape:pageshadow="2"
     inkscape:window-width="1920"
     inkscape:window-height="1018"
     id="namedview4851"
     showgrid="false"
     inkscape:zoom="0.68555195"
     inkscape:cx="535.59326"
     inkscape:cy="537.85315"
     inkscape:window-x="-8"
     inkscape:window-y="-8"
     inkscape:window-maximized="1"
     inkscape:current-layer="g4857" /><g
     id="g4857"
     inkscape:groupmode="layer"
     inkscape:label="eagle-wings--publicdomainvectors.org"
     transform="matrix(1.3333333,0,0,-1.3333333,0,1066.6667)"><g
       id="g4859"><g
         id="g4861"
         clip-path="url(#clipPath4865)"><path
           d="m 141.678,476.348 c -34.327,12.461 -45.915,44.27 -50.531,69.229 25.038,-60.625 170.069,-18.106 227.019,-87.388 L 304.27,389.487 c 0,0 -32.957,-2.819 -54.464,-8.558 -1.743,31.912 -41.554,71.252 -108.128,95.419 m 261.415,-282.8 c -0.25,-4.137 -0.978,-8.298 -1.917,-12.364 -0.929,-4.08 -2.326,-8.033 -3.929,-11.789 -1.591,-3.764 -3.581,-7.275 -5.732,-10.478 -2.122,-3.229 -4.568,-6.067 -7.018,-8.567 -0.628,-0.61 -1.248,-1.215 -1.858,-1.806 -0.624,-0.579 -1.282,-1.103 -1.902,-1.638 -1.221,-1.095 -2.547,-1.982 -3.757,-2.885 -1.232,-0.879 -2.499,-1.599 -3.647,-2.34 -1.209,-0.644 -2.357,-1.257 -3.435,-1.831 -1.113,-0.491 -2.153,-0.949 -3.116,-1.371 -0.964,-0.416 -1.893,-0.692 -2.702,-0.998 -1.617,-0.624 -2.959,-0.897 -3.84,-1.159 -0.891,-0.245 -1.364,-0.376 -1.364,-0.376 0,0 0.451,0.196 1.299,0.564 0.839,0.385 2.109,0.837 3.607,1.674 0.751,0.41 1.61,0.801 2.486,1.339 0.87,0.54 1.811,1.122 2.816,1.747 0.952,0.693 1.963,1.43 3.03,2.209 0.996,0.87 2.09,1.709 3.133,2.702 1.017,1.017 2.133,2.005 3.125,3.194 0.505,0.581 1.042,1.146 1.544,1.76 0.484,0.627 0.976,1.263 1.475,1.909 1.926,2.62 3.779,5.505 5.275,8.693 1.525,3.164 2.857,6.54 3.79,10.086 0.944,3.532 1.683,7.17 1.984,10.857 0.308,3.674 0.435,7.351 0.134,10.949 -0.268,3.591 -0.729,7.097 -1.511,10.408 -0.319,1.67 -0.83,3.27 -1.242,4.837 -0.498,1.555 -0.972,3.07 -1.519,4.515 -0.582,1.433 -1.073,2.842 -1.714,4.145 -0.591,1.319 -1.169,2.585 -1.819,3.757 -0.309,0.589 -0.611,1.167 -0.908,1.731 -0.323,0.55 -0.641,1.085 -0.95,1.608 -0.616,1.044 -1.196,2.033 -1.823,2.912 -0.605,0.876 -1.15,1.766 -1.686,2.462 -0.528,0.692 -1.013,1.328 -1.451,1.905 -0.233,0.297 -0.389,0.534 -0.645,0.837 -0.245,0.294 -0.476,0.571 -0.69,0.828 -0.429,0.516 -0.792,0.949 -1.087,1.302 -0.591,0.71 -0.907,1.089 -0.907,1.089 0,0 19.956,0.561 20.548,-0.635 0.6,-1.174 1.138,-2.476 1.701,-3.842 0.281,-0.68 0.569,-1.384 0.863,-2.101 0.26,-0.728 0.526,-1.475 0.797,-2.239 0.571,-1.513 1.053,-3.125 1.532,-4.794 0.527,-1.654 0.888,-3.419 1.324,-5.204 0.398,-1.791 0.71,-3.657 1.027,-5.549 0.23,-1.915 0.54,-3.846 0.643,-5.839 0.352,-3.965 0.315,-8.079 0.036,-12.214 m -82.955,154.424 c 2.346,-4.751 16.129,-8.971 14.959,-15.21 -0.641,-3.425 -12.649,-5.925 -13.802,-9.897 -1.183,-4.066 9.662,-11.64 7.347,-16.144 -0.908,-1.771 -14.687,-5.022 -15.71,-6.85 -2.347,-4.193 10.786,-15.018 7.393,-19.325 -42.466,19.518 -90.154,27.269 -109.511,26.372 -2.328,4.063 -9.189,8.766 -9.992,8.645 l 26.644,7.234 9.895,17.763 c 0,0 -28.67,2.005 -42.448,-20.787 -5.743,6.895 18.259,48.064 107.077,50.381 7.854,-2.139 52.112,0.856 54.276,-3.637 1.678,-3.483 -38.34,-14.065 -36.128,-18.545 M 191.833,281.377 c -14.283,15.502 -2.482,33.152 -2.482,33.152 0,0 4.888,0.324 12.405,-7.827 -11.871,-4.856 -11.068,-16.415 -9.923,-25.325 m 507.609,-34.872 c -76.055,8.492 -199.985,25.937 -207.97,43.099 -1.572,3.377 7.348,0.916 9.156,4.658 1.504,3.115 0.06,2.937 1.627,6.861 2.364,5.921 16.366,1.684 10.92,13.499 10.575,2.485 16.066,12.532 14.741,16.98 -19.061,-11.627 -36.947,-22.505 -51.88,-31.541 -12.511,-7.567 -22.951,-13.84 -30.294,-18.18 -3.67,-2.171 -6.566,-3.86 -8.555,-4.983 -1.983,-1.127 -3.086,-1.674 -3.108,-1.6 0.026,-0.07 1.091,0.531 3.012,1.761 1.925,1.224 4.726,3.062 8.275,5.422 7.095,4.722 17.186,11.538 29.271,19.756 15.992,10.872 35.484,24.201 56.141,38.366 5.981,8.505 5.246,17.341 1.577,21.134 -19.417,-11.847 -37.652,-22.938 -52.835,-32.124 -12.509,-7.565 -22.951,-13.84 -30.293,-18.179 -3.669,-2.171 -6.565,-3.861 -8.554,-4.982 -1.985,-1.127 -3.088,-1.677 -3.111,-1.601 0.028,-0.073 1.093,0.53 3.014,1.759 1.925,1.227 4.725,3.063 8.274,5.426 7.093,4.721 17.188,11.537 29.272,19.754 15.753,10.709 34.896,23.799 55.206,37.724 5.202,8.381 -1.426,14.585 -5.676,16.782 -16.339,-9.959 -31.618,-19.249 -44.646,-27.131 -12.511,-7.565 -22.952,-13.84 -30.295,-18.18 -3.67,-2.171 -6.565,-3.857 -8.556,-4.981 -1.982,-1.126 -3.086,-1.676 -3.107,-1.6 0.026,-0.074 1.092,0.529 3.013,1.758 1.924,1.228 4.726,3.063 8.274,5.426 7.095,4.722 17.186,11.537 29.271,19.753 15.099,10.264 33.307,22.715 52.678,35.991 2.749,7.411 -1.628,14.297 -3.306,18.419 -16.282,-9.922 -31.503,-19.178 -44.49,-27.034 -12.509,-7.565 -22.949,-13.838 -30.292,-18.18 -3.669,-2.172 -6.565,-3.857 -8.554,-4.981 -1.984,-1.126 -3.088,-1.674 -3.111,-1.6 0.03,-0.072 1.094,0.528 3.015,1.761 1.925,1.224 4.725,3.061 8.274,5.423 7.095,4.721 17.186,11.537 29.272,19.754 15.427,10.487 34.108,23.261 53.953,36.866 4.863,7.887 3.05,15.624 -8.188,15.346 -14.92,-9.09 -28.861,-17.563 -40.882,-24.836 -12.511,-7.565 -22.953,-13.839 -30.293,-18.179 -3.67,-2.172 -6.567,-3.86 -8.556,-4.983 -1.983,-1.127 -3.087,-1.673 -3.109,-1.601 0.027,-0.07 1.091,0.529 3.013,1.762 1.926,1.225 4.726,3.062 8.274,5.424 7.095,4.721 17.186,11.537 29.271,19.754 18.94,12.873 42.779,29.19 67.66,46.267 12.519,12.589 19.899,23.483 16.748,29.532 -29.14,-17.814 -57.526,-35.117 -79.523,-48.422 -12.51,-7.568 -22.951,-13.842 -30.294,-18.181 -3.668,-2.171 -6.566,-3.858 -8.555,-4.983 -1.984,-1.127 -3.087,-1.674 -3.111,-1.6 0.029,-0.071 1.094,0.529 3.016,1.76 1.924,1.226 4.725,3.063 8.274,5.423 7.094,4.723 17.186,11.539 29.271,19.756 24.172,16.432 56.319,38.464 88.437,60.537 3.485,2.4 6.968,4.799 10.441,7.193 8.502,11.536 13.195,25.267 8.732,34.955 -10.06,-6.347 -19.935,-12.556 -27.674,-17.306 -26.603,-16.273 -69.949,-43.965 -89.959,-56.068 -10.008,-6.055 -23.876,-14.849 -29.751,-18.323 -2.933,-1.736 -6.794,-4.139 -8.385,-5.038 -1.589,-0.903 -3.017,-1.716 -3.035,-1.656 0.024,-0.057 1.395,0.824 2.931,1.81 1.542,0.98 5.257,3.586 8.096,5.475 5.677,3.778 19.042,13.307 28.71,19.882 19.336,13.145 61.125,43.152 86.817,60.809 13.394,9.229 33.372,23.53 49.134,34.657 6.394,11.034 8.799,23.206 4.162,29.817 -14.219,-8.907 -48.709,-31.596 -61.725,-39.58 -19.953,-12.204 -73.368,-47.289 -88.375,-56.367 -7.508,-4.54 -24.802,-15.858 -29.209,-18.462 -2.199,-1.303 -7.021,-4.425 -8.216,-5.099 -1.189,-0.676 -2.942,-1.753 -2.958,-1.709 0.018,-0.043 1.699,1.12 2.849,1.858 1.155,0.737 5.786,4.112 7.917,5.529 4.258,2.833 20.893,15.076 28.145,20.007 14.501,9.859 65.93,47.842 85.202,61.083 13.378,9.221 50.114,36.435 61.878,44.541 1.221,0.843 2.924,2.056 4.856,3.449 7.047,10.893 10.684,23.891 7.703,30.882 -8.018,-5.231 -15.261,-9.896 -19.719,-12.632 -8.118,-4.98 -53.845,-35.631 -63.079,-41.296 -13.301,-8.137 -76.788,-50.614 -86.793,-56.667 -5.002,-3.024 -25.726,-16.863 -28.664,-18.598 -1.467,-0.87 -7.248,-4.71 -8.045,-5.161 -0.792,-0.449 -2.874,-1.792 -2.883,-1.762 0.011,-0.029 1.999,1.416 2.767,1.908 0.77,0.489 6.316,4.635 7.736,5.58 2.837,1.887 22.75,16.844 27.583,20.132 9.667,6.573 70.734,52.531 83.584,61.361 8.919,6.146 52.871,39.286 60.715,44.69 3.253,2.241 18.022,13.372 22.125,16.305 7.459,12.726 7.834,22.668 5.035,28.211 -14.644,-9.855 -30.369,-20.384 -34.217,-22.746 -4.057,-2.49 -57.331,-38.638 -61.949,-41.47 -6.65,-4.066 -80.206,-53.935 -85.208,-56.962 -2.503,-1.513 -26.653,-17.874 -28.122,-18.741 -0.733,-0.436 -7.476,-4.994 -7.874,-5.217 -0.397,-0.226 -2.801,-1.832 -2.806,-1.817 0.006,-0.015 2.298,1.71 2.682,1.955 0.385,0.245 6.848,5.162 7.556,5.632 1.419,0.946 24.605,18.616 27.021,20.258 4.834,3.287 75.538,57.221 81.964,61.637 4.459,3.072 55.631,42.139 59.552,44.84 1.724,1.188 20.836,15.781 22.303,16.794 2.082,1.433 9.314,6.863 16.861,12.567 2.911,8.57 2.347,18.249 -1.456,23.059 l -44.658,-30.575 -60.82,-41.646 -121.639,-83.288 116.778,89.983 58.393,44.993 44.719,34.456 c 7.46,25.035 -4.482,37.558 -7.302,37.259 -11.032,-1.171 -256.735,-201.41 -256.735,-201.41 L 312.393,381.238 c 0,0 -73.145,1.49 -110.965,-31.719 -18.876,-16.576 -16.097,-31.329 -16.097,-31.329 0,0 -6.318,-12.336 -4.52,-22.994 2.13,-12.633 10.977,-24.877 14.114,-25.491 1.206,1.865 -0.593,23.749 18.503,27.847 19.093,4.096 101.637,-25.91 101.637,-25.91 0,0 25.7,-23.343 37.359,-30.87 -2.11,-22.634 -21.353,-55.376 -13.486,-69.17 7.866,-13.795 -7.871,-24.175 -17.172,-23.348 -9.304,0.825 -45.636,4.07 -45.636,4.07 0,0 -30.182,-12.909 -32.819,-11.443 -2.634,1.465 -15.536,-23.745 -1.028,-28.753 0.76,2.019 -8.303,8.176 2.217,14.679 10.522,6.506 11.525,2.307 11.525,2.307 0,0 -15.958,-16.532 -3.429,-24.863 -1.193,3.125 -2.349,8.732 3.562,9.909 5.909,1.176 6.991,-8.612 8.172,-9.402 1.181,-0.788 2.419,-5.178 10.602,-5.62 -5.399,3.624 -8.85,10.612 -3.882,17.901 1.132,1.663 16.004,17.215 24.182,12.936 8.179,-4.283 14.15,-11.718 16.039,-19.732 0.818,-3.468 -6.097,-12.399 -8.22,-12.429 5.939,-0.946 13.583,7.352 15.616,8.622 2.03,1.271 7.194,12.112 3.455,13.115 -3.74,1.004 -11.54,14.367 -5.023,16.098 7.647,2.033 22.737,-5.535 18.277,-11.23 l 19.201,7.503 c 0,0 -20.941,-14.042 -21.598,-15.272 -2.553,-4.767 -0.341,-7.392 -2.358,-12.286 -2.02,-4.892 -2.523,-16.325 3.496,-18.169 -3.043,3.213 0.406,10.831 3.755,12.013 -2.023,-7.454 6.622,-16.446 9.851,-14.464 -3.744,0.792 -3.564,12.169 -3.564,12.169 l 10.867,5.155 c 0,0 -0.526,3.836 -0.083,8.925 0.444,5.091 15.652,7.268 15.825,6.577 1.516,-6.088 -11.237,-10.429 -11.237,-10.429 0,0 0.455,-1.092 0.295,-8.409 -7.798,-10.493 -1.125,-17.692 -1.125,-17.692 -1.132,4.649 1.817,11.794 5.328,11.814 3.512,0.019 12.265,3.979 13.495,6.411 1.229,2.428 -3.841,12.319 5.634,13.644 9.243,1.293 11.73,-13.471 5.954,-18.43 -4.772,-4.098 -9.71,-4.356 -9.71,-4.356 0,0 6.064,-1.027 9.667,-0.675 3.69,0.36 10.293,5.774 11.309,6.407 1.017,0.634 2.114,10.049 0.967,13.841 -1.149,3.787 -5.95,10.767 -0.116,14.136 11.869,6.852 17.783,-5.833 18.81,-8.818 1.027,-2.989 2.167,15.828 8.222,11.522 6.058,-4.308 11.822,-8.182 11.822,-8.182 0,0 -4.007,20.173 2.384,18.137 6.392,-2.037 12.438,-2.721 12.438,-2.721 0,0 -6.448,15.164 -0.29,16.09 6.429,0.964 14.046,0.078 14.046,0.078 0,0 -9.192,20.07 -4.761,19.671 2.219,-0.197 13.599,0.639 13.599,0.639 l -15.05,28.517 c 18.832,-2.201 59.602,-41.784 82.262,-51.138 5.121,-2.112 20.956,1.459 25.964,8.908 l -74.585,40.843 87.716,-41.71 c 5.962,0.214 10.844,2.954 14.381,12.004 l -83.605,42.947 90.954,-42.341 c 15.527,-0.424 18.071,8.469 20.327,14.512 l -93.906,41.449 100.974,-40.522 c 15.524,0.015 19.491,8.275 19.62,16.676 l -98.514,34.621 105.514,-33.504 c 14.431,0.625 21.096,12.351 17.347,18.12 L 568.957,246.616 680.388,221.02 c 19.605,7.246 19.16,19.649 19.054,25.485"
           style="fill:#000000;fill-opacity:1;fill-rule:nonzero;stroke:none"
           id="path4867"
           inkscape:connector-curvature="0" /></g></g></g></svg>